<?xml version="1.0" encoding="UTF-8"?>
<svg xmlns="http://www.w3.org/2000/svg" 
     width="2816" 
     height="1536" 
     viewBox="0 0 2816 1536">
  <path d="M1209,996 L1209,990 L1208,989 L1208,985 L1207,984 L1207,981 L1203,973 L1199,969 L1198,969 L1195,966 L1194,966 L1189,962 L1185,960 L1178,959 L1174,957 L1133,957 L1132,958 L1129,958 L1125,960 L1108,960 L1103,963 L1093,963 L1087,966 L1080,966 L1075,969 L1062,969 L1061,970 L1059,970 L1058,971 L1054,971 L1053,972 L1022,972 L1021,973 L1019,973 L1016,979 L1017,980 L1017,983 L1018,984 L1017,985 L1018,986 L1018,991 L1022,994 L1023,996 L1023,1000 L1026,1001 L1029,1004 L1029,1005 L1031,1006 L1033,1006 L1034,1007 L1036,1007 L1040,1009 L1045,1009 L1046,1010 L1056,1010 L1057,1009 L1075,1009 L1076,1008 L1082,1008 L1083,1007 L1087,1007 L1088,1006 L1102,1006 L1103,1005 L1106,1005 L1107,1004 L1112,1004 L1113,1003 L1121,1003 L1122,1002 L1128,1002 L1129,1001 L1142,1001 L1143,1000 L1168,1000 L1169,1001 L1182,1001 L1183,1002 L1186,1002 L1187,1003 L1191,1003 L1192,1004 L1196,1004 L1197,1005 L1200,1005 L1202,1006 L1203,1005 L1205,1005 L1207,1003 L1208,1001 L1208,997 Z" fill="black" stroke="none"/>
  <path d="M1895,610 L1893,610 L1892,609 L1871,609 L1870,610 L1868,610 L1867,611 L1865,611 L1864,612 L1861,612 L1860,613 L1859,613 L1857,615 L1855,615 L1852,618 L1851,618 L1850,619 L1849,619 L1848,620 L1848,622 L1845,625 L1844,625 L1843,626 L1843,629 L1842,630 L1842,634 L1838,638 L1838,639 L1837,640 L1837,651 L1838,652 L1838,654 L1839,655 L1839,656 L1840,656 L1841,657 L1841,658 L1842,659 L1842,661 L1843,662 L1843,666 L1846,669 L1847,669 L1848,670 L1848,671 L1850,673 L1851,673 L1852,674 L1853,674 L1854,675 L1855,675 L1856,676 L1859,676 L1860,677 L1862,677 L1863,678 L1877,678 L1878,677 L1881,677 L1882,676 L1884,676 L1885,675 L1887,675 L1888,674 L1889,674 L1890,673 L1891,673 L1893,671 L1894,671 L1894,670 L1896,668 L1897,668 L1899,666 L1900,666 L1908,658 L1908,656 L1910,654 L1910,652 L1911,651 L1911,650 L1912,649 L1912,646 L1913,645 L1913,637 L1912,636 L1913,635 L1913,634 L1912,633 L1912,630 L1911,629 L1911,627 L1910,626 L1910,625 L1907,622 L1907,621 L1898,612 L1897,612 Z" fill="black" stroke="none"/>
  <path d="M2426,592 L2426,596 L2425,597 L2426,599 L2425,601 L2425,612 L2424,613 L2425,614 L2425,621 L2426,622 L2425,624 L2425,628 L2426,631 L2430,634 L2432,640 L2435,641 L2437,645 L2443,650 L2455,656 L2457,656 L2460,658 L2464,658 L2465,659 L2475,659 L2484,656 L2485,654 L2477,652 L2471,649 L2462,641 L2459,632 L2461,620 L2469,611 L2475,608 L2478,608 L2483,606 L2490,606 L2491,607 L2496,607 L2497,608 L2501,608 L2504,610 L2507,610 L2521,617 L2523,617 L2527,620 L2529,620 L2534,624 L2545,630 L2548,634 L2560,644 L2563,648 L2574,658 L2574,661 L2576,664 L2580,667 L2581,672 L2583,673 L2585,676 L2585,679 L2590,689 L2590,692 L2591,693 L2591,696 L2593,702 L2595,703 L2595,687 L2594,686 L2594,682 L2593,681 L2593,676 L2592,675 L2591,668 L2586,653 L2575,630 L2572,627 L2569,621 L2559,608 L2543,592 L2522,577 L2520,577 L2514,573 L2511,573 L2508,571 L2503,570 L2497,567 L2484,567 L2483,566 L2478,566 L2477,565 L2476,566 L2469,566 L2468,567 L2459,567 L2454,570 L2451,570 L2443,575 L2443,576 L2441,578 L2438,579 L2436,582 L2431,586 L2431,588 Z" fill="black" stroke="none"/>
  <path d="M2445,605 L2445,603 L2446,602 L2448,602 L2449,603 L2449,604 L2447,606 L2446,606 Z" fill="white" stroke="none"/>
  <path d="M1814,488 L1802,480 L1755,487 L1700,547 L1628,679 L1567,831 L1547,853 L1548,798 L1600,553 L1610,468 L1603,457 L1586,453 L1559,459 L1531,477 L1485,541 L1364,856 L1331,916 L1307,945 L1281,963 L1248,970 L1260,997 L1282,1009 L1317,1007 L1346,985 L1373,945 L1413,852 L1487,633 L1528,551 L1529,591 L1502,686 L1480,812 L1480,902 L1491,937 L1509,952 L1530,952 L1556,931 L1661,695 L1724,578 L1705,670 L1672,775 L1656,932 L1672,1007 L1695,1042 L1733,1060 L1778,1050 L1781,1043 L1755,1031 L1736,1004 L1725,963 L1722,898 L1738,779 L1768,661 L1817,512 Z" fill="black" stroke="none"/>
  <path d="M1370,944 L1371,943 L1372,944 L1371,945 Z" fill="white" stroke="none"/>
  <path d="M1533,804 L1534,803 L1535,803 L1536,804 L1536,805 L1535,806 Z" fill="white" stroke="none"/>
  <path d="M1508,766 L1509,765 L1510,766 L1509,767 Z" fill="white" stroke="none"/>
  <path d="M1716,757 L1717,756 L1719,756 L1720,757 L1721,757 L1722,758 L1722,762 L1723,763 L1722,764 L1721,764 L1720,763 L1720,762 L1716,758 Z" fill="white" stroke="none"/>
  <path d="M1712,747 L1713,746 L1714,747 L1713,748 Z" fill="white" stroke="none"/>
  <path d="M1544,738 L1545,737 L1546,737 L1547,738 L1547,739 L1546,740 L1545,740 L1544,739 Z" fill="white" stroke="none"/>
  <path d="M1519,729 L1519,727 L1520,726 L1522,728 L1520,730 Z" fill="white" stroke="none"/>
  <path d="M1538,691 L1539,692 L1539,693 L1536,696 L1535,696 L1533,694 L1536,691 Z" fill="white" stroke="none"/>
  <path d="M2660,586 L2654,597 L2646,580 L2630,621 L2615,592 L2610,516 L2573,459 L2568,494 L2558,472 L2558,514 L2575,559 L2494,475 L2410,445 L2452,488 L2400,469 L2443,517 L2540,552 L2596,613 L2624,690 L2612,796 L2569,865 L2504,915 L2556,714 L2545,702 L2510,705 L2486,734 L2442,856 L2407,900 L2387,903 L2377,870 L2420,715 L2406,693 L2372,690 L2320,856 L2281,908 L2249,924 L2220,892 L2203,828 L2276,785 L2300,746 L2299,709 L2268,684 L2240,687 L2159,753 L2173,707 L2257,621 L2307,529 L2310,493 L2296,465 L2268,458 L2234,469 L2189,517 L2145,610 L2084,829 L2046,895 L2001,921 L1983,883 L1993,781 L2081,656 L2133,527 L2125,465 L2081,456 L2046,478 L2008,532 L1947,690 L1925,830 L1858,920 L1836,911 L1835,880 L1873,735 L1856,715 L1821,716 L1782,845 L1782,928 L1804,954 L1840,960 L1877,940 L1922,882 L1936,935 L1966,964 L2019,957 L2069,902 L2080,942 L2116,955 L2154,814 L2167,908 L2216,965 L2265,958 L2316,903 L2341,940 L2387,945 L2449,878 L2430,958 L2299,1036 L2244,1109 L2244,1165 L2262,1190 L2302,1204 L2340,1200 L2372,1185 L2427,1125 L2493,954 L2570,898 L2632,820 L2656,743 L2648,662 Z" fill="black" stroke="none"/>
  <path d="M2419,1113 L2420,1114 L2420,1115 L2419,1116 L2418,1116 L2417,1115 Z" fill="white" stroke="none"/>
  <path d="M2418,1090 L2419,1091 L2419,1093 L2418,1094 L2416,1092 Z" fill="white" stroke="none"/>
  <path d="M2418,1080 L2419,1080 L2420,1081 L2420,1084 L2419,1085 L2417,1085 L2416,1084 L2416,1082 Z" fill="white" stroke="none"/>
  <path d="M2439,1059 L2440,1058 L2441,1059 L2440,1060 Z" fill="white" stroke="none"/>
  <path d="M2416,996 L2417,997 L2417,1000 L2415,1004 L2416,1006 L2416,1010 L2415,1011 L2415,1018 L2414,1019 L2414,1022 L2409,1027 L2409,1036 L2404,1040 L2404,1045 L2403,1046 L2403,1048 L2398,1052 L2398,1062 L2393,1067 L2392,1069 L2393,1071 L2392,1072 L2392,1074 L2387,1078 L2387,1084 L2382,1089 L2382,1093 L2381,1095 L2376,1099 L2376,1104 L2371,1108 L2370,1114 L2365,1117 L2365,1120 L2363,1122 L2360,1123 L2359,1128 L2354,1132 L2354,1135 L2349,1138 L2349,1140 L2346,1143 L2343,1144 L2343,1145 L2339,1149 L2338,1149 L2337,1151 L2332,1153 L2332,1154 L2329,1157 L2326,1158 L2322,1161 L2318,1161 L2313,1164 L2293,1164 L2292,1163 L2290,1163 L2286,1159 L2283,1158 L2279,1153 L2279,1151 L2276,1147 L2276,1145 L2275,1144 L2275,1140 L2274,1139 L2274,1131 L2275,1130 L2275,1127 L2276,1126 L2276,1124 L2278,1120 L2278,1117 L2279,1116 L2280,1111 L2282,1108 L2282,1106 L2286,1098 L2288,1096 L2289,1093 L2291,1091 L2293,1087 L2296,1084 L2296,1083 L2300,1079 L2300,1078 L2319,1059 L2320,1059 L2331,1049 L2332,1049 L2336,1045 L2340,1043 L2347,1037 L2348,1037 L2359,1029 L2369,1024 L2377,1018 L2380,1017 L2382,1015 L2385,1014 L2387,1012 L2395,1008 L2397,1006 L2406,1002 L2411,998 L2413,998 L2415,996 Z" fill="white" stroke="none"/>
  <path d="M1804,875 L1806,873 L1808,873 L1809,874 L1809,876 L1808,877 L1806,877 Z" fill="white" stroke="none"/>
  <path d="M1809,853 L1810,852 L1811,853 L1810,854 Z" fill="white" stroke="none"/>
  <path d="M2366,821 L2367,820 L2369,820 L2370,821 L2370,823 L2369,824 L2367,824 L2366,823 Z" fill="white" stroke="none"/>
  <path d="M2370,810 L2371,809 L2372,810 L2372,811 L2371,812 L2370,811 Z" fill="white" stroke="none"/>
  <path d="M2380,765 L2381,766 L2381,773 L2380,774 L2380,775 L2379,776 L2378,775 L2378,771 L2379,770 L2379,766 Z" fill="white" stroke="none"/>
  <path d="M2636,761 L2637,760 L2638,760 L2639,761 L2639,762 L2638,763 L2637,763 L2636,762 Z" fill="white" stroke="none"/>
  <path d="M2641,758 L2642,757 L2643,757 L2645,759 L2645,760 L2646,761 L2645,762 L2643,762 L2642,761 L2642,760 L2641,759 Z" fill="white" stroke="none"/>
  <path d="M2363,753 L2364,752 L2365,753 L2364,754 Z" fill="white" stroke="none"/>
  <path d="M2249,729 L2249,732 L2250,733 L2250,737 L2249,738 L2249,744 L2247,746 L2246,746 L2244,748 L2244,752 L2240,756 L2239,756 L2239,760 L2228,771 L2228,772 L2227,773 L2226,773 L2225,774 L2224,774 L2222,776 L2222,778 L2221,779 L2220,779 L2219,780 L2218,780 L2214,784 L2213,784 L2211,786 L2211,787 L2209,789 L2207,789 L2205,791 L2204,791 L2203,792 L2202,792 L2201,793 L2200,793 L2198,795 L2197,795 L2196,796 L2195,796 L2192,799 L2191,799 L2189,801 L2188,801 L2187,802 L2186,802 L2183,804 L2180,804 L2179,805 L2178,805 L2175,807 L2169,807 L2168,808 L2164,808 L2163,809 L2162,809 L2159,812 L2158,812 L2155,815 L2154,814 L2154,812 L2157,809 L2157,808 L2158,807 L2158,805 L2159,804 L2159,803 L2160,802 L2160,801 L2161,800 L2161,799 L2162,798 L2162,797 L2164,795 L2164,794 L2165,793 L2165,792 L2166,791 L2166,790 L2168,788 L2168,787 L2170,785 L2170,784 L2171,783 L2171,782 L2174,779 L2174,778 L2176,776 L2176,775 L2179,772 L2179,771 L2181,769 L2181,768 L2184,765 L2184,764 L2190,758 L2190,757 L2198,749 L2198,748 L2203,743 L2204,743 L2211,736 L2212,736 L2219,729 L2220,729 L2223,726 L2224,726 L2225,725 L2227,725 L2228,724 L2230,724 L2231,723 L2235,723 L2236,722 L2238,722 L2239,721 L2240,722 L2242,722 L2246,726 L2246,727 Z" fill="white" stroke="none"/>
  <path d="M2099,497 L2106,506 L2106,509 L2107,510 L2107,523 L2106,524 L2106,527 L2102,532 L2102,534 L2101,535 L2101,545 L2100,547 L2096,550 L2095,562 L2090,568 L2090,578 L2089,580 L2085,583 L2085,590 L2084,592 L2079,596 L2079,599 L2078,601 L2074,604 L2073,613 L2071,614 L2068,618 L2068,626 L2064,630 L2063,630 L2063,637 L2062,638 L2062,640 L2059,642 L2057,645 L2057,652 L2052,655 L2052,657 L2050,661 L2046,664 L2046,668 L2041,673 L2040,679 L2035,683 L2035,688 L2030,691 L2030,693 L2028,697 L2021,703 L2020,703 L2016,710 L2010,717 L2007,724 L2004,727 L2003,725 L2004,724 L2004,720 L2006,715 L2006,711 L2007,710 L2008,701 L2009,700 L2010,694 L2012,690 L2013,682 L2016,678 L2016,674 L2018,670 L2018,667 L2019,666 L2019,664 L2022,657 L2022,654 L2026,644 L2027,636 L2029,633 L2030,627 L2032,624 L2032,621 L2033,620 L2034,615 L2036,612 L2037,607 L2041,599 L2041,596 L2043,593 L2043,591 L2045,588 L2046,583 L2048,580 L2048,578 L2050,575 L2052,568 L2055,563 L2055,561 L2057,558 L2059,551 L2065,540 L2066,536 L2068,534 L2068,532 L2070,530 L2070,528 L2073,522 L2075,520 L2076,517 L2082,508 L2086,504 L2086,503 L2091,499 L2095,497 Z" fill="white" stroke="none"/>
  <path d="M2274,496 L2278,500 L2278,503 L2282,509 L2282,515 L2281,516 L2280,519 L2277,523 L2277,534 L2272,539 L2272,543 L2271,544 L2271,550 L2266,554 L2266,562 L2261,565 L2261,568 L2260,569 L2260,571 L2258,573 L2255,574 L2255,579 L2252,582 L2251,582 L2250,583 L2250,586 L2249,587 L2249,588 L2246,591 L2245,591 L2244,592 L2244,597 L2241,600 L2240,600 L2239,601 L2239,605 L2237,608 L2234,609 L2232,616 L2231,617 L2228,618 L2228,620 L2227,621 L2227,622 L2222,626 L2222,628 L2220,630 L2217,631 L2217,632 L2215,635 L2212,636 L2208,640 L2206,640 L2205,641 L2205,642 L2199,648 L2199,649 L2192,656 L2192,657 L2190,659 L2189,658 L2189,655 L2191,652 L2192,647 L2193,646 L2193,645 L2194,644 L2194,642 L2196,639 L2196,637 L2197,636 L2197,633 L2198,632 L2199,627 L2201,624 L2201,622 L2202,621 L2202,619 L2203,618 L2203,615 L2206,610 L2206,608 L2208,605 L2208,603 L2210,600 L2210,598 L2211,597 L2211,596 L2212,595 L2212,593 L2214,590 L2215,585 L2218,580 L2218,578 L2219,577 L2219,575 L2221,572 L2221,570 L2222,569 L2222,568 L2224,565 L2224,563 L2229,554 L2229,552 L2232,547 L2232,545 L2234,542 L2234,540 L2235,539 L2236,536 L2238,534 L2239,531 L2241,529 L2242,526 L2244,524 L2246,519 L2248,517 L2248,516 L2250,514 L2250,513 L2254,509 L2254,508 L2263,499 L2264,499 L2266,497 L2268,497 L2269,496 Z" fill="white" stroke="none"/>
  <path d="M182,697 L160,782 L156,850 L165,917 L193,979 L250,1024 L282,1033 L326,1032 L400,992 L475,896 L518,796 L569,778 L550,852 L556,919 L578,946 L628,950 L686,889 L706,943 L729,956 L754,956 L788,937 L822,895 L831,953 L847,985 L872,1000 L904,1002 L941,984 L974,949 L1021,849 L1020,818 L1008,813 L984,883 L945,946 L910,966 L893,956 L883,916 L889,860 L954,628 L1030,639 L1088,635 L1124,613 L1135,577 L1063,599 L970,587 L991,498 L983,474 L953,457 L935,463 L924,532 L905,571 L778,547 L703,552 L661,571 L638,601 L639,638 L676,610 L728,595 L806,595 L892,611 L836,824 L798,889 L766,916 L747,908 L744,876 L793,719 L789,698 L750,687 L726,715 L705,693 L657,693 L559,753 L534,756 L558,624 L556,554 L535,491 L483,448 L415,444 L358,475 L316,540 L282,549 L237,592 Z" fill="black" stroke="none"/>
  <path d="M859,922 L860,922 L862,924 L862,926 L860,928 L858,926 L858,923 Z" fill="white" stroke="none"/>
  <path d="M193,899 L194,898 L195,898 L196,899 L196,900 L195,901 Z" fill="white" stroke="none"/>
  <path d="M872,896 L873,897 L873,898 L871,900 L870,899 L870,898 Z" fill="white" stroke="none"/>
  <path d="M193,893 L194,892 L195,893 L194,894 Z" fill="white" stroke="none"/>
  <path d="M197,885 L198,884 L200,884 L203,887 L201,889 L199,889 L197,887 Z" fill="white" stroke="none"/>
  <path d="M867,869 L868,868 L869,869 L868,870 Z" fill="white" stroke="none"/>
  <path d="M195,856 L197,854 L198,855 L199,855 L200,856 L200,857 L199,858 L197,858 Z" fill="white" stroke="none"/>
  <path d="M177,853 L178,852 L179,852 L180,853 L179,854 L178,854 Z" fill="white" stroke="none"/>
  <path d="M192,844 L194,846 L192,848 L190,846 Z" fill="white" stroke="none"/>
  <path d="M193,819 L193,817 L194,816 L195,816 L196,817 L196,818 L194,820 Z" fill="white" stroke="none"/>
  <path d="M184,816 L185,815 L187,817 L186,818 L185,818 L184,817 Z" fill="white" stroke="none"/>
  <path d="M199,796 L200,795 L201,795 L203,797 L203,798 L202,799 L201,799 L199,797 Z" fill="white" stroke="none"/>
  <path d="M697,730 L701,732 L706,737 L707,737 L709,739 L709,742 L710,743 L710,750 L711,751 L711,753 L712,754 L712,757 L713,758 L712,759 L712,764 L711,765 L711,769 L710,770 L710,783 L709,784 L709,787 L705,790 L705,792 L704,793 L704,800 L703,802 L699,806 L698,815 L693,820 L693,828 L688,833 L688,838 L687,839 L687,841 L684,844 L683,844 L682,846 L682,853 L677,857 L676,859 L676,863 L672,865 L671,867 L671,870 L668,873 L667,873 L666,874 L666,876 L662,880 L661,880 L659,886 L655,888 L655,891 L649,896 L649,898 L648,899 L643,901 L641,903 L639,903 L637,904 L635,906 L622,906 L621,905 L619,905 L617,904 L612,898 L610,894 L609,889 L608,888 L608,877 L607,876 L607,871 L608,870 L608,858 L609,857 L609,853 L610,852 L610,849 L611,848 L611,844 L613,840 L613,837 L615,833 L616,826 L618,822 L618,819 L620,816 L621,811 L625,804 L625,802 L627,800 L627,798 L629,795 L629,793 L632,787 L634,785 L636,779 L642,771 L645,764 L648,761 L648,760 L650,758 L650,756 L654,752 L655,750 L656,750 L668,738 L669,738 L671,736 L674,735 L678,732 L680,732 L684,730 Z" fill="white" stroke="none"/>
  <path d="M340,651 L341,650 L343,650 L344,651 L344,653 L343,654 L342,654 L340,652 Z" fill="white" stroke="none"/>
  <path d="M301,621 L303,622 L304,634 L308,641 L308,660 L309,663 L313,666 L314,677 L319,682 L319,690 L324,694 L325,702 L330,706 L330,712 L335,715 L336,721 L341,724 L341,727 L347,733 L347,736 L352,740 L352,742 L361,749 L372,761 L398,778 L427,790 L450,795 L470,796 L472,798 L473,811 L469,814 L467,824 L462,829 L462,837 L457,842 L456,850 L451,853 L451,859 L446,863 L445,870 L440,874 L440,880 L435,884 L435,888 L429,895 L429,898 L424,901 L423,907 L418,910 L418,914 L412,919 L412,922 L407,925 L407,928 L402,931 L402,934 L397,937 L395,943 L387,951 L381,954 L378,959 L361,972 L339,984 L335,984 L329,987 L322,987 L316,990 L296,990 L290,987 L283,986 L268,977 L251,958 L240,937 L231,906 L227,851 L227,828 L231,797 L234,786 L234,780 L236,777 L238,764 L250,719 L275,660 L282,647 Z" fill="white" stroke="none"/>
  <path d="M989,497 L990,498 L990,503 L989,504 L988,503 L988,498 Z" fill="white" stroke="none"/>
  <path d="M439,486 L460,486 L461,487 L465,487 L477,492 L482,495 L486,500 L490,502 L490,504 L495,508 L496,512 L500,515 L502,523 L506,526 L506,533 L512,541 L512,557 L517,568 L517,638 L516,639 L516,643 L512,650 L511,675 L508,679 L506,685 L506,708 L501,714 L500,730 L495,736 L495,751 L488,759 L482,762 L470,762 L465,759 L458,759 L454,756 L437,750 L419,740 L415,736 L411,734 L400,723 L388,706 L387,701 L382,693 L376,679 L373,675 L369,663 L367,649 L365,643 L365,635 L364,634 L365,632 L365,605 L367,600 L367,589 L373,565 L378,555 L378,549 L380,546 L381,541 L393,520 L407,504 L424,492 L434,487 L438,487 Z" fill="white" stroke="none"/>
  <path d="M518,474 L519,473 L520,473 L521,474 L520,475 L519,475 Z" fill="white" stroke="none"/>
</svg>